<?xml version="1.0" encoding="UTF-8" standalone="no"?><!DOCTYPE svg PUBLIC "-//W3C//DTD SVG 1.1//EN" "http://www.w3.org/Graphics/SVG/1.1/DTD/svg11.dtd"><svg width="100%" height="100%" viewBox="0 0 4546 2313" version="1.1" xmlns="http://www.w3.org/2000/svg" xmlns:xlink="http://www.w3.org/1999/xlink" xml:space="preserve" xmlns:serif="http://www.serif.com/" style="fill-rule:evenodd;clip-rule:evenodd;stroke-linejoin:round;stroke-miterlimit:2;"><g><path d="M817.038,2166.6c-14.942,-7.388 -28.176,-16.763 -45.767,-17.183l32.758,17.291l13.009,-0.108Zm-215.271,-16.35c-4.938,0.413 -42.55,5.121 -42.317,9.158c3.25,3.884 7.875,5.642 12.3,7.675c34.471,15.879 100.183,33.734 137.996,36.63c13.679,1.049 50.875,2.291 62.862,-0.03c4.855,-0.941 7.071,-3.554 10.038,-7.079c-12.033,-12.871 -30.792,-9.004 -45.783,-14.271c-55.538,-19.508 -67.413,-37.704 -135.096,-32.083Zm352.716,44.896c-9.504,-13.679 -29.85,-18.225 -42.762,-27.338c-24.975,-17.625 -52.096,-45.062 -76.054,-64.195c-2.313,-1.85 -22.738,-15.613 -24.13,-16c-3.837,-1.075 -8.591,-0.076 -8.72,3.099c-0.088,2.117 20.337,26.43 23.058,34.355c3.271,9.537 -1.179,14.921 0.079,24.02c43.792,16.163 79.875,43.942 128.529,46.059Zm-489.562,-137.288c4.208,14.163 48.466,-0.541 48.608,-4.329c-4.212,-6.337 -5.812,-3.117 -10.85,-2.362c-12.462,1.866 -25.283,4.741 -37.758,6.691Zm346.391,74.421c-20.195,-5.121 -18.708,-23.841 -26.204,-38.229c-3.179,-6.1 -22.804,-31.446 -28.162,-37.667c-7.05,-8.191 -16.271,-13.754 -25.746,-18.591c-4.483,5.745 17.171,34.12 20.167,41.337c2.758,6.646 2.212,14.083 4.966,20.788c6.246,15.183 35.554,41.845 53.563,38.041l1.416,-5.679Zm-62.962,-25.837c-11.154,-14.429 -24.129,-29.438 -33.846,-44.838c-15.512,-24.579 -26.741,-70.783 -60.617,-72.441c-3.483,18.374 10.871,30.937 19.359,45.004c2.412,3.995 2.379,10.191 5.167,14.866c3.387,5.684 13.737,11.396 15.162,16.584c2.396,8.737 -8.254,15.083 -5.038,20.508c20.042,11.779 33.996,25.004 59.813,20.317Zm420.4,-133.988c-6.283,-1.979 -27.408,-1.254 -27.667,6.65c-0.27,8.254 48.046,39.133 56.6,46.129c14.475,-12.512 26.984,-18.054 45.938,-21.812l-18.85,-8.538c-25.8,5.092 -48.55,8.146 -56.021,-22.429Zm-619.892,44.454c-2.108,-3.712 -23.433,-71.254 -35.258,-59.225c-3.3,8.1 9.512,13.434 8.404,18.221c-0.871,3.75 -9.412,5.871 -8.587,14.538c0.716,7.537 8.608,8.05 12.604,13.766c10.454,14.942 9.567,25.138 15.504,38.563c2.533,5.725 10.15,9.325 11.571,14.192c2.229,7.608 -1.367,16.312 1.846,23.9l33.066,2.7c3.692,-3.388 -20.816,-34.725 -24.046,-40.326c-5.033,-8.733 -10.62,-18.454 -15.104,-26.329Zm-101.937,-71.396c1.742,-1.424 1.404,-4.937 3.612,-6.449c-2.112,-2.634 -3.375,-4.038 -6.987,-4.367c-5.213,-0.475 -39.288,8.867 -46.092,11.354c-10.858,3.971 -20.412,9.975 -18.433,23.054c14.637,3.021 24.496,-5.908 36.612,-10.612c11.642,-4.521 9.23,-1.288 22.113,-9.509c3.029,-1.933 7.508,-2.112 9.175,-3.471Zm206.671,14.726c4.366,-6.313 -20.15,-47.405 -23.996,-47.721c-19.013,-1.563 -5.663,46.587 9.171,50.475c5.175,1.358 10.121,-1.129 14.825,-2.754Zm-96.105,-26.342c-3.916,-7.013 -6.295,-23.338 -12.37,-26.342l-25.792,-1.375c-7.058,6.879 22.738,30.163 24.425,34.388c1.996,5.025 -2.854,10.1 -1.283,15.258c1.116,3.654 9.429,4.396 8.371,10.404l4.72,-8.692c6.092,-0.537 10.942,-5.366 15.229,1.563c-26.504,17.875 -11.137,19.004 -3.45,34.979c5.696,11.833 8.788,27.746 14.446,39.934c7.892,16.995 20.667,30.991 27.05,48.754c8.455,7.37 20.225,1.208 28.271,2.375c14.579,2.116 29.667,12.416 45.396,9.854c-0.004,-5.417 -10.471,-7.838 -11.133,-8.858c-0.729,-1.126 6.162,-10.563 -1.75,-13.95l-13.742,8.22c-24.137,-16.062 -31.117,-43.833 -44.417,-67.47c-6.954,-12.359 -13.941,-28.905 -19.241,-37.996c-5.8,-9.942 -26.684,-26.646 -34.73,-41.046Zm61.184,-28.613c1.412,-1.533 8.667,-15.029 2.221,-16.295l-14.729,6.983l1.916,13.062c1.246,1.321 8.838,-1.85 10.592,-3.75Zm-82.183,-30.566c-21.975,-2.43 -33.046,21.695 -53.03,25.666l10.079,25.796l-11.47,0.025l0.041,8.563l24.542,-5.5l-1.633,-37.4c20.012,6.5 27.375,3.712 31.471,-17.15Zm140.287,-25.755c-9.583,0.967 -23.475,12.738 -30.675,19.392c-3.067,2.833 -7.975,2.975 -6.529,9.179c17.371,3.384 26.679,-17.508 37.204,-28.571Zm324.304,24.976c13.596,1.383 10.829,17.37 26.192,15.091c6.337,-0.942 29.875,-15.346 27.25,-23.983c-0.788,-2.588 -22.146,-18.738 -26.559,-18.338c-5.079,0.455 -29.525,13.425 -29.345,20.767l2.462,6.463Zm-612.037,-27.809c-5.646,6.3 -22.029,17.213 -11.471,25.625l18.216,-13.187l-6.745,-12.438Zm430.687,-17.041c-7.729,-5.042 -19.417,8.162 -15.754,14.199l15.933,5.655l-0.179,-19.854Zm-72.212,3.479c-8.15,-7.392 -27.825,8.12 -33.471,14.937c17.95,15.642 34.458,31.917 53.404,46.721c95.217,74.404 194.996,146.488 288.608,223.754c5.592,4.613 11.767,11.038 15.805,17.079c-6.875,-0.02 -19.334,0.33 -24.909,-3.708c-2.312,-1.675 -3.696,-7.425 -7.987,-10.579c-100.604,-73.963 -204.513,-144.792 -303.475,-220.354c-13.829,-10.563 -18.275,-22.367 -38.817,-29.871c-16.1,-5.884 -12.854,2.925 -17.808,6.179c-6.959,4.571 -21.338,-1.196 -24.492,14.387c-3.617,17.863 6.879,15.946 13.417,25.442c10.9,15.829 12.237,46.771 34.72,55.425c-2.604,-22.021 -19.195,-38.796 -8.454,-62.883c4.142,-2.817 36.446,15.612 41.392,19.975c71.2,62.783 151.542,116.016 226.192,174.533c6.562,5.142 45.712,36.088 38.633,42.913c-34.029,-7.054 -61.392,-37.909 -88.975,-58.409c-43.783,-32.537 -87.254,-64.975 -129.958,-99.029l-48.755,-45.7c-3.008,1.842 -1.395,9.113 -0.737,12.183c0.908,4.238 33.883,63.33 36.754,66.28c11.504,11.825 48.188,32.025 64.117,44.65c27.5,21.795 50.229,47.829 75.912,70.062c24.1,20.867 51.117,38.308 74.338,60.208c17.941,5.663 34.037,-1.754 50.537,-4.158c28.963,-4.217 32.9,-2.608 60.321,-16.967c50.738,-26.57 91.642,-67.187 139.717,-97.862c7.85,-12.912 37.825,-31.671 41.55,-44.329c1.179,-4.013 -0.259,-5.088 -4.192,-4.192c-20.312,17.271 -30.941,33.909 -61.771,24.433c-7.554,-2.32 -51.521,-43.154 -63.012,-51.483c-37.213,-26.958 -76.25,-50.475 -112.821,-78.954c-9.013,-7.021 -34.229,-39.192 -46.971,-31.012c-4.096,2.629 -0.371,22.745 -16.133,21.179c-5.784,-0.575 -28.934,-17.192 -30,-15.838c-1.521,16.088 19.379,19.388 27.725,26.65c49.792,43.329 104.812,82.096 152.621,126.434c6.166,5.72 27.212,15.412 15.741,24.275c-23.612,-16.426 -48.104,-31.955 -71.216,-49.084c-51.163,-37.908 -109.546,-94.387 -162.334,-126.629c-6.079,-3.708 -14.729,-3.838 -20.895,-7.729c-8.763,-5.538 -12.642,-23.488 -25.788,-19.45c-11.292,3.471 5.304,25.683 9.875,29.633c4.921,4.254 12.8,5.496 18.408,10.217c66.017,55.562 136.171,108.912 198.95,167.425c5.925,5.521 17.075,11.271 22.05,16.571c2.925,3.116 16.988,23.241 13.788,27.733c-52.883,-35.575 -99.596,-78.771 -149.334,-118.304c-13.612,-10.821 -23.845,-14.946 -36.704,-24.829c-24.45,-18.788 -59.604,-57.996 -88.116,-69.313c-14.246,-5.654 -30.621,0.2 -44.875,-15.237c-8.196,-8.875 -4.663,-19.03 -9.05,-29.596l-31.238,5.491c2.379,-12.55 -2.85,-30.708 -12.287,-39.27Zm-30.675,-17.954c-6.046,-5.617 -21.055,9.904 -20.042,15.654c2.75,15.604 25.796,-10.313 20.042,-15.654Zm453.154,19.191c-2.317,-1.879 -3.571,-7.35 -7.917,-10.629c-4.55,-3.433 -18.45,-13.571 -22.9,-14.354c-12.746,-2.242 4.434,18.058 8.367,20.267c5.937,3.333 11.429,1.529 15.071,3.633c44.833,25.942 106.916,78.4 149.491,112.316c9.042,7.205 34.9,33.684 41.159,36.305c9.766,4.095 35.612,-6.225 47.833,-6.538c2.204,-2.971 -17.637,-15.937 -20.025,-18.571c-20.992,-23.137 -42.858,-73.308 -67.667,-86.891c-31.191,-17.075 -129.983,-24.642 -143.412,-35.538Zm-413.05,-27.758c-2.15,15.716 25.804,29.467 30.962,12.258c6.317,-21.058 -18.229,-17.317 -30.962,-12.258Zm86.283,-16.746c-0.767,0.658 -7.479,14.921 -9.112,18.075c-1.792,3.462 -3.438,6.563 1.612,7.233c6.583,0.871 23.884,-14.35 29.95,-18.608c-2.65,-6.446 -18.433,-10.15 -22.45,-6.7Zm-252.237,68.354l8.416,27.171c7.584,5.854 88.221,-74.571 101.75,-81.667l-0.012,-11.441l-6.338,-5.438c-10.254,-2.491 -17.758,13.088 -23.033,16.959c-4.962,3.645 -11.787,4.966 -16.458,8.524c-19.938,15.196 -39.775,38.859 -64.325,45.892Zm143.037,-65.921c-1.092,13.475 21.4,9.613 22.75,1.067c-6.712,-18.292 -9.912,-0.492 -22.75,-1.067Zm82.325,-19.546c-5.787,0.571 -16.617,5.809 -16.575,12.342c4.092,15.325 19.508,2.096 25.846,-5.758l-4.525,-6.979c-1.608,-0.421 -3.179,0.237 -4.746,0.395Zm-86.008,10.055c4.112,-3.35 8.837,-14.359 5.3,-19.317c-9.384,-13.175 -34.925,18.342 -33.109,20.163c9.467,1.116 19.234,6.129 27.809,-0.846Zm-16.367,-42.029c-2.866,-2.963 -16.417,5.47 -19.783,7.383c-24.583,13.946 -65.246,43.204 -88.275,60.4c-18.938,14.137 -33.975,35.442 -56.713,43.637c-6.875,7.567 8.359,14.259 14.496,14.3c15.279,0.092 21.4,-19.02 28.521,-25.675c3.858,-3.6 10.204,-4.758 14.413,-8.475c32.92,-29.062 66.433,-58.412 103.72,-82.266c4.113,-2.629 6.105,-6.738 3.621,-9.304Zm-185.129,103.949c10.958,-11.012 42.892,-34.258 57.825,-46.65c10.004,-8.299 74.479,-54.004 72.908,-61.562c-2.883,-13.883 -23.191,8.904 -24.941,9.95c-44.809,26.746 -76.921,59.662 -117.609,91.425c-12.221,9.542 -45,20.1 -22.129,37.446c18.109,-4.492 24.184,-20.796 33.946,-30.609Zm288.204,-92.558c4.696,-6.821 -20.941,-24.554 -27.392,-25.641c-7.77,-1.317 -37.199,4.15 -37.87,12.762l24.05,33.008c17.229,-1.966 24.437,-18.579 41.212,-20.129Zm-372.196,-57.175l-21.475,14.275c-10.241,4.95 -34.22,46.388 -24.479,53.134c21.863,15.137 50.15,-50.092 45.954,-67.409Zm357.742,-19.904c-20.767,-0.542 -35.308,17.142 -50.037,28.392c-5.425,4.146 -30.98,18.816 -29.967,24.362c4.021,5.875 5.171,3.15 10.246,1.779c24.179,-6.521 41.846,-37.15 69.908,-31.771l-4.467,28.73c12.155,7.504 63.234,40.766 67.054,12.054c2.571,-19.334 -65.037,-40.275 -62.737,-63.546Zm-59.992,-2.992c-12.512,-0.846 -17.987,10.438 -25.979,15.5c-17.2,10.888 -38.521,18.004 -51.275,34.596c-2.287,2.975 -4.454,6.438 -5.758,9.954c1.804,1.475 15.404,-4.612 18.154,-6.15c5.592,-3.125 24.146,-15.6 29.108,-19.546c6.775,-5.387 8.7,-15.412 11.896,-17.429c8.204,-5.171 24.721,-0.216 23.854,-16.925Zm99.021,-7.395c-5.775,-4.13 -29.012,-25.23 -33.137,-11.134c-4.034,13.796 44.954,27.442 55.096,35.625c14.524,11.708 25.52,24.346 43.124,37.792c19.792,15.116 61.084,49.083 81.046,59.204c7.354,3.729 19.771,2.658 20.817,3.533c0.562,0.471 1.617,9.404 4.708,13.884c13.846,20.058 36.021,28.9 54.017,40.562c28.95,18.754 57.371,59.233 92.633,76.121c14.817,7.096 37.738,5.304 51.463,11.521c11.021,4.987 21.187,21.033 28.625,26.521c14.125,10.433 43.25,7.087 46.483,30.179c1.621,11.6 -4.954,23.525 -2.775,35.55c9.458,9.287 39.4,-28.492 51.513,-28.679c1.037,-5.146 -2.542,-7.1 -5.88,-9.792c-33.716,-27.192 -78.358,-52.642 -114.179,-77.6c-22.654,-15.779 -72.366,-59.8 -94.75,-68.558c-8.858,-3.467 -28.012,8.296 -38.337,-10.179c-2.421,-4.325 -2.754,-25.388 -1.204,-27.809c1.566,-2.446 10.221,-1.787 8.137,-9.158c-12.137,4.996 -22.104,7.4 -35.033,2.096c-5.925,-2.43 -8.617,-8.65 -14.421,-11.33c-16.171,-7.466 -53.562,-17.316 -65.942,-24.941c-44.391,-27.35 -88.7,-62.434 -132.004,-93.408Zm-164.05,19.666c2.15,-1.721 47.292,-22.641 50,-23.15c10.317,-1.941 17.238,3.054 27.15,1.742c4.754,-0.629 38.838,-15.209 42.213,-18.146c3.812,-3.321 2.429,-4.7 -1.263,-7.154c-1.35,-0.9 -27.25,-12.709 -29.512,-13.429c-4.167,-1.325 -30.55,-5.021 -32.038,-3.55c2.183,21.454 -14.4,20.333 -26.825,28.979c-56.633,39.416 -116.525,83.225 -168.654,125.371c-23.75,19.2 -47.983,41.579 -72.737,59.725c-2.563,1.875 -21.121,13.862 -22.438,13.816c-1.829,-0.066 -4.233,-3.729 -6.454,-4.183c-11.259,-2.3 -28.3,15.246 -7.909,16.817c3.942,0.304 27.534,0.129 31.226,-0.296c10.895,-1.25 22.12,-20.467 31.766,-28.588c59.892,-50.412 124.8,-99.408 185.475,-147.954Zm-204.091,-63.775c-16.755,-1.154 -23.742,10.6 -34.555,18.388c-3.737,2.691 -9.758,2.346 -13.32,5.295c-9.475,7.859 -11.83,38.33 -12.217,50.692c4.85,5.496 38.933,-27.629 42.925,-32.904c4.046,-5.35 20.708,-37.925 17.167,-41.471Zm229.054,-5.633c-6.817,-7.446 -36.709,15.2 -43.846,20.454c-55.788,41.075 -107.813,89.742 -163.717,131.104c-5.996,4.434 -37.571,26.471 -41.542,27.421c-6.804,1.625 -14.312,-3.433 -20.045,2.537c-12.892,13.417 12.062,32.171 29.537,21.696c2.492,-1.491 6.259,-9.395 10.496,-13.108c33.088,-28.967 69.183,-54.3 101.85,-84.25c14.875,-13.637 21.796,-17.717 38.283,-30.354c12.975,-9.946 24.842,-24.238 37.688,-33.871c17.067,-12.804 46.675,-22.167 51.296,-41.629Zm-337.009,139.487c-4.129,-7.612 5.988,-11.566 9.029,-16.712c13,-22.029 10.525,-35.938 17.284,-57.125c3.904,-12.242 28.941,-71.604 27.083,-78.292c-2.017,-7.258 -18.254,-3.187 -22.621,-0.225c-4.15,2.821 -4.741,10.342 -8.629,14.259c-7.475,7.533 -32.141,21.804 -35.704,27.27c-5.162,7.921 -3.025,17.767 -5.821,25.659c-2.1,5.933 -6.596,11.12 -8.583,17.175c-16.488,50.279 -23.942,105.908 -40.825,153.779c-11.471,32.525 -31.854,61.666 -31.096,98.033l66.192,68.571c5.954,1.721 4.508,-9.475 7.541,-15.262c2.917,-5.555 31.225,-34.846 10.83,-29.296c-8.263,2.245 -9.775,11.158 -11.946,12.425c-1.017,0.591 -16.83,3.258 -17.705,3.058c-1.379,-0.317 -11.67,-13.525 -12.808,-15.779c-6.25,-12.384 5.034,-11.059 8.983,-18.725c1.092,-2.117 7.901,-25.267 7.851,-26.7c-0.271,-8.129 -16.434,-8.392 -14.384,-19.767c0.209,-1.137 15.742,-7.746 19.85,-11.825c13.596,-13.483 13.413,-36.121 18.85,-52.7c5.279,-16.108 25.171,-59.504 21.529,-75.287c-0.487,-2.109 -4.616,-2.009 -4.9,-2.534Zm73.6,-242.591c-3.941,-0.709 -6.625,1.229 -9.616,3.358c-8.4,5.992 -51.179,43.521 -56.305,50.246c-4.887,6.412 -21.795,46.95 -17.079,52.246c7.784,-0.692 15.33,-6.971 21.396,-11.496c9.688,-7.225 44.883,-38.363 50.263,-47.058c3.708,-6 13.887,-44.58 11.341,-47.296Zm-386.516,-2.875c-5.209,1.083 -5.321,5.625 -5.805,9.912c-3.058,27.171 3.346,53.621 5.8,80.254c0.88,9.542 -5.533,49.184 10.025,44.296c12.242,-3.841 -0.562,-32.571 -1.25,-38.758c-2.358,-21.329 -2.566,-37.896 -5.737,-60.079c-1.65,-11.53 0.071,-24.096 -3.033,-35.625Zm719.816,10.412c-3.1,-3.412 -13.166,-19.725 -18.304,-16.116c-3.762,16.499 -21.804,21.079 -32.587,28.983c-72.7,53.283 -144.759,118.983 -215.484,176.525c-30.054,24.446 -51.454,24.137 -65.616,66.175c-1.292,3.833 -1.684,7.579 -1.279,11.571c5.037,5.2 31.787,-22.559 37.4,-26.984c57.524,-45.366 112.008,-94.437 170.07,-139.05c33.709,-25.9 70.088,-49.221 101.592,-75.871c9.254,-7.829 19.392,-15.033 28.746,-22.783c1.054,-2.087 -3.042,-0.804 -4.538,-2.45Zm-517.021,-84.279c-16.612,-1.263 -15.083,-29.371 -23.862,-29.271c-3.358,-0.016 -4.958,2.558 -7.258,4.292c-40.192,30.358 -40.313,74.654 -49.392,119.458c-3.454,17.033 -13.037,38.617 -13.55,55.384c-0.696,22.57 6.967,53.575 8.65,77.12c0.508,7.155 2.592,47.317 -0.004,50.055c-6.867,0.858 -4.554,0.054 -6.021,-3.967c-6.6,-18.133 -2.475,-67.417 -9.046,-75.379c-0.679,-0.821 -7.421,-3.9 -7.766,-3.646c-6.242,35.621 -38.084,84.283 -27.367,120.312c0.937,3.154 18.729,32.796 22.067,38.038c18.904,29.691 60.899,84.15 86.775,107.725c2.295,2.091 4.724,6.65 8.595,5.775l5.792,-8.596c11.754,-42.033 28.767,-82.229 42.342,-123.65c12.687,-38.725 24.987,-78.212 37.208,-117.329c6.037,-19.333 10.338,-51.792 17.108,-68.742c2.742,-6.862 11.375,-9.966 13,-15.625c2.009,-7.004 -0.875,-14.729 1.159,-21.733c2.241,-7.713 21.371,-20.513 6.345,-33.204l-35.549,11.262c6.533,22.604 -2.588,52.029 -10.263,74.063c-13.783,39.596 -19.05,82.829 -31.121,123.416c-7.675,25.813 -33.483,102.759 -50.283,118.567c-2.088,1.963 -3.359,5.25 -7.071,4.329c-6.533,-8.379 -15.358,-17.712 -12.396,-29.329c38.021,-77.671 53.925,-162.442 83.121,-243.308c8.171,-22.634 13.775,-33.709 19.983,-57.025c2.029,-7.617 10.23,-24.534 10.334,-30.009c0.091,-4.658 -30.355,-23.441 -32.396,-23.383c-10.2,0.296 -3.084,22.242 -4.379,29.521c-1.238,6.954 -9.121,13.029 -10.696,20.829c-8.788,43.442 -13.721,89.587 -27.863,132.392c-9.366,28.337 -49.925,137.425 -68.287,153.516c-2.317,2.03 -9.334,7.188 -11.796,6.759c-14.425,-23.6 3.5,-54.092 16.15,-75.375c3.337,-5.613 11.875,-10.496 13.271,-15.35c3.987,-13.842 6.379,-29.417 11.25,-45.984c11.229,-38.187 24.762,-75.229 36.033,-112.783c6.879,-22.917 17.509,-53.463 21.525,-76.029c2.984,-16.729 -13.987,-12.746 -16.446,-19.709l2.104,-23.387Zm332.592,-20.508c-11.008,-0.613 -14.387,-18.35 -25.691,-13.025c-25.917,21.733 -49.576,45.979 -74.455,68.812c-7.941,7.288 -34.675,23.246 -34.391,34.288c0.104,3.929 5.146,6.875 5.458,11.291c0.375,5.392 -4.904,14.617 -2.571,21.621l131.65,-122.987Zm-492.45,286.083c6.321,-23.738 6.738,-48.533 5.879,-73.075c-1.929,-55.029 -12.216,-110.621 -13.858,-165.85c-0.508,-17.217 7.142,-43.142 -0.346,-60.317c-1.912,-4.387 -2.979,-8.02 -8.816,-6.9c4.274,10.617 3.474,24.321 2.979,35.859c-3.28,75.937 -14.03,164.362 -5.863,240.266c1.121,10.429 6.138,32.542 20.025,30.017Zm242.4,-292.771c4.85,-6.708 6.692,-17.35 -4.983,-15.091c-5.221,1.012 -20.083,23.579 -15.596,30.404c6.242,9.495 9.362,-4.767 13.463,-9.759c2.166,-2.637 6.033,-4.058 7.116,-5.554Zm279.679,47.683l64.884,-45.395c-8.079,-10.538 -11.425,-29.288 -28.238,-23.821c-1.8,5.571 -3.262,9.55 -7.55,13.887c-19.362,19.567 -52.737,38.85 -74.366,57.288c-16.613,14.158 -30.013,31.733 -45.959,45.633c-19.158,16.704 -87.492,60.092 -92.391,82.208c-2.65,11.967 -1.126,30.759 -3.438,43.75c8.754,0.8 10.475,-9.645 15.754,-14.27c8.867,-7.767 23.325,-14.48 30.059,-24.325c9.837,-14.396 12.749,-43.988 34.32,-47.229l1.434,11.425c22.171,-21.459 45.05,-39.792 67.858,-60.246c12.175,-10.917 26.271,-29.304 37.633,-38.905Zm-222.833,-75.387c-7.238,8.287 -13.462,14.3 -2.821,22.871c6.796,1.583 12.629,-12.3 9.596,-18.163l-6.775,-4.708Zm-89.179,3.933c23.087,-5.016 2.2,-28.575 -11.296,-12.741c-6.071,7.12 -9.704,27.862 -9.767,37.408l21.063,-24.667Zm44.787,-6.85c8.259,3.667 13.863,6.592 22.688,1.271c20.087,-12.104 -19.392,-23.346 -22.688,-1.271Zm-178.92,-14.25l-18.696,24.48l5.75,51.25c-10.046,14.562 -13.179,32.495 -1.4,47.254c6.437,-0.021 17.35,-54.038 15.141,-63.73c-3.25,-14.27 -21.154,-21.183 -4.716,-43.116c4.708,-6.288 20.141,-10.246 3.921,-16.138Zm385.045,19.971c-7.35,-7.633 -5.737,-23.629 -18.366,-22.879c-19.105,1.133 -14.471,21.783 -18.655,24.571c-3.404,2.266 -12.124,0.758 -17.541,2.496c-14.775,4.75 -26.45,29.062 -35.083,37.925c-6.938,7.12 -19.001,12.616 -26.371,20.833c-6.525,7.279 -12.809,24.729 -15.738,27.196c-7.654,6.458 -26.479,3.45 -34.383,14.283c-5.042,6.917 -19.838,53.779 -2.592,48.975c6.471,-1.804 34.396,-35.358 42.729,-43.212c26.084,-24.584 55.113,-46.109 81.629,-70.179c13.809,-12.534 27.142,-32.042 44.371,-40.009Zm-440.571,223.729c0.346,-0.62 5.875,-1.641 8.951,-6.9c24.091,-41.208 12.229,-94.9 10.62,-137.971c-0.929,-24.783 1.046,-49.824 0.267,-74.62c-0.337,-10.754 -5.275,-19.242 -0.342,-31.004c-9.637,-12.53 -19.833,0.691 -22.033,11.741c-2.308,11.567 0.483,24.55 -0.817,36.383c-7.008,63.842 -1.554,127.026 -2.825,191.742c-0.179,9.142 6.359,18.871 0.129,30.167c15.488,0.229 4.451,-16.696 6.05,-19.538Zm142.088,-227.296c1.342,-1.562 8.267,-22.525 10.592,-28.02c1.395,-3.296 8.071,-2.484 0.112,-8.4c-5.687,-0.867 -28.012,36.108 -24.275,40.029c3.95,0.129 11.009,-0.633 13.571,-3.609Zm-19.371,-59.291c-19.879,-1.017 -12.983,16.287 -16.146,24.962c-1.104,3.025 -12.091,9.029 -9.554,17.904c21.833,4.892 6.525,-24.762 28.254,-29.045l-2.554,-13.821Zm47.709,-2.433c-22.613,16.295 -1.592,22.841 12.416,6.687l-12.416,-6.687Zm-117.113,6.012c4.238,4.1 5.433,18.271 9.204,20.825c10.292,9.604 32.438,-18.783 31.771,-25.721c-0.304,-10.266 -39.487,-28.704 -44.188,-27.196c-3.895,4.08 -10.949,16.196 -10.554,21.234c0.671,8.637 9.909,7.125 13.767,10.858Zm74.692,-34.454c-4.892,-2.521 -12.305,1.533 -10.946,6.475c8.108,2.704 15.891,14.591 24.271,12.925c13.025,-2.592 -8.796,-13.188 -10.771,-14.396c-1.938,-1.183 -2.067,-4.754 -2.554,-5.004Zm-114.15,10.721l1.704,-20.088c-9.054,-8.212 -23.213,4.996 -17.488,14.454l15.784,5.634Zm91.729,-17.1c8.167,-7.971 -25.709,-23.171 -31.467,-22.863c-4.241,3.929 22.563,28.875 31.467,22.863Zm172.883,70.487c-19.925,-21.883 -49.546,-52.183 -71.529,-73.037c-20.167,-19.134 -44.787,-41.167 -72.479,-45.838l-8.813,34.063c10.888,-1.85 19.017,12.012 24.896,13.775c7.529,2.254 21.792,-1.75 26.834,1.796c3.991,2.804 0.958,11.754 5.529,17.366c2.237,2.746 11.541,6.384 15.733,10.025c18.287,15.909 37.642,32.35 58.938,44.108c3.454,1.909 30.041,14.3 31.237,13.101c1.267,-8.496 -6.454,-11.088 -10.346,-15.359Zm-158.554,-136.296c-13.117,-4.637 -34.146,12.742 -25.975,24.513c4.329,6.237 19.917,17.262 26.096,7.921l-0.121,-32.434Zm-40.096,-17.141c-8.487,-1.525 -28.058,17.733 -15.691,22.846c6.879,2.845 2.854,-7.334 4.849,-10.83c1.342,-2.341 13.059,-3.966 10.842,-12.016Zm287.354,156.366c-60.937,-71.858 -101.004,-109.316 -183.425,-155.8c-2.741,-1.546 -12.858,-8.162 -15.162,-6.279c4.729,6.609 5.504,16.721 10.062,22.825c3.471,4.65 9.825,6.142 12.842,10.054c14.942,19.413 22.288,40.042 49.408,47.288l50.78,38.571l-20.025,1.445l7.366,19.796l58.425,64.792c3.246,2.671 4.867,0.325 7.35,-1.437c8.209,-5.838 19.113,-26.696 29.867,-33.221l0.071,-2.705c-0.521,-2.087 -5.879,-3.345 -7.559,-5.329Zm199.338,-130.629l-22.917,-27.146l-25.725,-10.025c12.683,15.85 32.959,24.421 48.642,37.171Zm-538.058,-39.9c0.591,25.484 29.054,11.225 15.533,-5.896l-15.533,5.896Zm45.637,-45.929c-16.054,-1.708 -14.779,17.271 -14.283,28.613l8.475,-0.063l5.808,-28.55Zm132.483,44.996c-11.112,-18.029 -12.641,-16.7 -26.621,-32.054c-16.587,-18.213 -52.916,-76.621 -57.158,-18.696l26.971,-8.396c8.554,2.067 2.479,29.279 4.975,36.571c23.563,9.642 45.279,23.992 63.996,40.483l4.225,-1.379c-3.054,-9.729 -14.508,-13.488 -16.388,-16.529Zm-136.425,-158.408c-1.525,-1.805 -4.695,-3.03 -7.029,-5.696c-4.562,-5.213 -3.021,-15.188 -14.75,-12.542c-9.875,36.4 -27.229,70.95 -41.542,105.883c-3.179,7.763 -2.916,17.413 -7.883,26.459c-3.858,7.025 -17.904,16.371 -12.254,25l14.683,14.137c17.88,-2.321 15.079,-11.729 21.042,-21.404c7.617,-12.367 16.142,-24.233 23.021,-37.083c-11.85,-6.321 -24.196,-18.15 -18.767,-33.063l21.846,-3.916l9.888,-30.209l17.175,17.129l12.458,-16.412c1.237,-4.85 -13.571,-23.167 -17.888,-28.283Zm493.517,27.55c-3.867,-19.721 19.938,-18.742 28.567,-27.259c9.879,-9.75 -15.946,-16.558 -22.071,-17.85c-16.675,-3.512 -15.621,-2.333 -31.6,-8.479c-10.684,-4.108 -21.492,-8.033 -32.129,-12.213c-3.4,3.396 20.566,30.017 24.266,34.375c6.796,7.996 18.459,22.009 25.775,28.621c2.488,2.25 3.167,3.696 7.192,2.805Zm-250.075,43.925c-18.433,-22.684 -36.929,-46.017 -55.083,-69.417c-15.009,-19.342 -32.613,-36.475 -45.58,-57.471c-6.462,-1.188 -3.983,2.821 -4.266,7.087c-0.433,6.513 0.708,12.884 -0.642,19.43c-2.362,11.462 -17.079,20.737 -6.654,33.704c59.4,79.121 119.146,157.946 177.896,237.108c9.354,12.6 22.246,24.983 31.066,37.629c12.78,18.317 22.617,40.555 35.78,58.679c13.062,11.638 25.337,-8.212 34.779,-14.27c2.704,-1.738 16.075,-8.521 18.367,-4.53l5.949,19.955c-12.95,19.258 -56.375,18.096 -23.304,45.746l49.955,-46.58c-2.101,-3.162 -3.913,-6.679 -6.409,-9.529c-72.029,-82.287 -142.283,-171.917 -211.854,-257.541Zm614.667,257.52c9.891,-8.604 25.312,-12.433 36.054,-19.766c20.391,-13.921 41.517,-34.517 64.046,-47.588c21.237,-12.325 84.5,-40.3 107.158,-44.558c45.383,-8.529 70.729,27.262 116.833,25.187c131.559,-5.912 172.454,-139.262 253.217,-210.462c43.533,-38.375 93.992,-65.975 140.138,-100.3c2.908,-2.163 9.554,-7.296 8.758,-11.217l-12.2,-3.758c-27.058,13.025 -58.459,37.737 -87.292,44.475c-28.317,6.621 -49.533,5.579 -78,19.329c-16.537,7.992 -33.587,25.396 -47.908,32.242c-35.483,16.954 -76.358,26.783 -113.117,38.6c-43.692,14.046 -104.75,58.083 -148.775,53.012c-30.95,-3.562 -68.704,-21.6 -98.85,-27.337c-27.587,-5.25 -28.166,16.062 -36.6,16.537c-1.337,0.075 0.221,-8.958 -10.783,-5.196c-4.042,1.384 -7.133,6.55 -11.45,8.646c-32.154,15.604 -82.088,27.421 -118.171,22.442c-8.7,-1.2 -10.033,-6.188 -17.058,-8.692c-30.6,-10.904 -137.646,24.334 -170.05,38.817c-7.721,3.45 -23.409,18 -27.534,18.437c-15.408,1.629 -22.191,-16.187 -15.662,-28.675l-8.588,1.404l-35.629,35.938l-20.187,2.679l-1.404,5.679c15.058,12.717 25.037,16.692 44.733,19.705c22.025,3.37 26.408,0.041 45.708,-2.15c14.675,-1.671 41.921,4.216 44.017,21.412c5.15,42.233 -44.446,21.9 -68.629,24.062c-0.305,15.242 17.679,23.921 25.333,33.317c30.792,37.788 34.108,62.888 25.85,110.838c-2.746,15.958 -4.525,27.462 -16.842,38.937c33.65,-2.321 39.8,-45.892 74.284,-53.087c23.075,-4.813 17.779,4.25 27.804,9.633c31.816,17.071 54.929,-5.508 80.441,-18.742c7.246,-3.758 15.563,-3.025 23.488,-8c9.917,-6.229 18.196,-24.262 26.867,-31.8Zm-819.854,-430.196l-11.375,-0.02c8.22,37.875 -4.338,25.287 -18.48,40.22c-3.441,3.634 -5.712,12.059 -9.741,16.28l0.829,6.475c19.371,7.908 22.946,34.383 41.671,37.212l-5.688,2.842c-2.137,7.325 3.017,4.892 4.567,6.733c13.129,15.583 34.671,30.579 45.621,44.667c6.908,8.887 7.746,19.587 12.7,27.358c16.475,25.863 64.92,74.125 87.116,98.925c26.313,29.4 57.15,56.846 77.709,88.3c10.395,15.9 31.308,33.659 44.1,48.15c2.6,2.95 5.341,10.95 6.383,11.575c9.346,5.617 32.729,-13.421 28.113,-25.271c-3.875,0.15 -6.113,3.517 -9.921,0.155c-7.421,-6.542 -16.796,-28.63 -23.167,-37.167c-84.013,-112.538 -186.683,-211.671 -256.563,-335.904c-5.65,-10.042 -17.104,-15.975 -13.874,-30.53Zm26.291,-5.27c-1.571,3.675 3.15,9.625 4.792,12.891c3.904,7.75 21.546,36.838 26.616,42.059c3.034,3.125 3.646,6.096 9.546,4.621c9.475,-6.584 4.334,-16.976 5.355,-23.746c0.483,-3.196 4.612,-6.163 5.041,-11.93c1.017,-13.729 -13.637,-34.654 -24.641,-41.695c-13.809,-0.721 -16.713,12.825 -26.709,17.8Zm301.35,81.312c-24.496,-27.617 -49.65,-54.254 -74.241,-81.746c-8.109,-9.066 -23.351,-34.945 -31.255,-40.291c-13.633,-9.221 -20.404,10.62 -33.112,13.054c15.154,20.658 35.008,37.916 51.454,57.312c44.383,52.33 85.133,107.288 128.967,160.125c26.925,32.455 29.933,45.325 71.512,57.767c4.004,1.2 6.646,6.079 12.992,6.587c7.516,0.596 44.891,-11.279 48.646,-16.999c2.433,-3.705 1.546,-4.667 -1.434,-7.321c-32.941,-0.642 -54.925,24.07 -80.241,-11.38c-15.75,-22.054 -2.263,-23.374 -3.3,-30.958c-0.654,-4.779 -40.184,-54.45 -46.771,-62.066c-13.325,-15.405 -29.65,-28.792 -43.217,-44.084Zm1367.28,-121.808c-27.054,-13.979 -46.2,4.141 -65.558,21.696c-3.187,2.887 -7.187,4.233 -5.979,9.737l27.408,-5.487l44.129,-25.946Zm-1323.69,98.275c-23.796,-27.1 -55.071,-56.821 -80.617,-83.963c-7.267,-7.716 -38.617,-55.804 -51.579,-37.32c-6.108,8.716 4.916,9.891 6.354,12.362c16.396,28.171 33.596,40.883 53.896,64.942c35.075,41.571 68.937,84.8 100.337,128.633c2.68,3.737 19.796,26.458 21.246,27.413c2.921,1.92 5.429,1.529 8.629,1.37c-5.629,-13.812 11.242,-22.545 8.259,-32.362c-24.5,-24.529 -43.5,-54.854 -66.525,-81.075Zm12.466,179.196c-68.383,-100.834 -161.804,-181.329 -235.946,-277.75c-4.266,-5.55 -5.408,-13.496 -10.42,-18.2c-22.555,-21.167 -36.675,11.466 -57.313,17.325c-1.966,9.05 5.663,11.537 8.075,17.579c21.975,55.108 71.288,104.379 107.9,152.554c58.933,77.542 117.108,155.433 177.929,231.358c12.384,15.459 54.888,71.513 67.246,78.721c4.963,2.896 16.342,3.913 18.617,7.234c3.279,4.774 -6.046,23.62 6.883,33.175c9.684,-1.83 41.979,-26.934 45.013,-5.896c1.112,7.716 -10.804,8.741 -14.971,12.816c-26.979,26.396 -50.783,39.163 -80.013,63.121c-13.266,10.875 -25.875,25.067 -38.687,35.729c-26.242,21.834 -102.896,75.988 -113.154,104.379c-2.059,5.696 -9.6,35.496 4.325,24.355c12.262,-9.817 25.379,-28.505 37.521,-39.763c68.066,-63.125 139.545,-124.941 212.929,-182.067c13.933,-10.85 15.262,-22.004 38.725,-17.116l-0.609,28.054c-9.679,4.604 -17.991,11.463 -26.52,17.821c-42.638,31.804 -79.088,66.546 -120.405,99.996c-24.687,19.983 -53.108,37.537 -77.158,57.366c-11.254,9.279 -86.971,77.038 -88.937,82.8l-9.871,45.909c15.179,-8.784 23.775,-26.204 37.162,-38.663c65.396,-60.867 141.579,-122.65 211.654,-177.612c23.184,-18.184 41.5,-39.263 71.334,-47.446c-5.25,-15.429 13.029,-32.725 14.296,-41.604c0.666,-4.684 -2.796,-9.542 -2.196,-13.534c2.441,-16.312 8.462,-26.358 5.366,-45.8c-2.633,-16.558 -13.171,-20.616 -21.383,-30.054c-17.167,-19.725 -34.825,-34.537 -52.788,-53.192c-30.512,-31.691 -69.187,-54.412 -105.112,-78.079c-18.562,-12.229 -44.696,-31.45 -9.492,-43.516Zm-41.258,-287.692c-11.117,-3.571 -38.346,-41.862 -43.654,-43.704c-14.917,-5.171 -27.542,3.946 -22.704,19.654c4.054,13.171 44.587,48.779 56.054,62.271c19.508,22.962 32.704,51.054 57.258,69.254c5.163,-11.321 -5.475,-19.45 -5.896,-30.075c-0.379,-9.617 5.467,-15.854 1.805,-27.296c-2.225,-6.942 -35.005,-42.071 -42.863,-50.104Zm-141.983,-15.617l-0.034,-4.175c-15.258,-9.675 -11.37,-23.033 -18.625,-35.841l-33.046,21.925c-2.162,7.62 20.867,32.662 25.855,34.15c13.041,3.883 13.666,-15.75 25.85,-16.059Zm4.954,-56.566c-3.546,0.787 -11.638,4.266 -10.542,9.196c0.379,1.687 21.233,25.283 22.75,26.116c17.667,9.675 14.813,-19.396 5.463,-31.325c-4.842,-6.175 -10.234,-5.642 -17.671,-3.987Zm231.704,37.562c-6.183,-7.375 -55.796,-45.171 -63.563,-46.625c-31.541,-5.912 -35.554,12.275 -61.441,17.05c0.354,14.758 17.625,20.863 27.242,31.434c21.875,24.041 41.087,53.183 63.525,76.933c3.495,1.304 6.145,0.329 9.337,-1.117c15.567,-7.062 40.371,-38.687 57.275,-48.604c-4.679,-11.175 -17.667,-8.025 -22.846,-11.4c-2.475,-1.613 -5.55,-12.925 -9.529,-17.671Zm-177.504,-51.491c-2.258,-2.33 -17.217,-11.488 -19.042,-9.559l5.625,33.108c18.754,1.576 27.692,-8.841 13.417,-23.549Zm38.2,-3.884c-10.846,-9.637 -6.55,-39.891 -28.613,-24.246l19.963,25.867l8.65,-1.621Zm2470.75,-34.279c-13.55,1.383 -44.529,-2.521 -48.654,14.267c15.812,0.25 36.058,-4.159 48.654,-14.267Zm896.1,-188.871c-43.471,-7.15 -91.917,-9.287 -135.933,-5.691c-86.342,7.049 -184.492,48.12 -272.001,39.991c-21.162,-1.967 -46.724,-11.558 -68.737,-11.662c-122.771,-0.575 -245.183,25.845 -362.163,58.904c-51.954,14.683 -75.512,28.404 -122.441,49.312c-6.721,2.996 -41.075,13.05 -42.35,14.9c-2.267,3.284 -1.079,7.917 -1.275,11.6c13.996,-2.55 28.462,2.671 41.404,2.992c38.013,0.946 79.967,-12.838 120.354,-8.692c44.783,4.6 -0.683,52.359 -19.429,63.546c-28.896,17.246 -64.621,19.738 -96,29.958c-30.879,10.059 -63.404,25.746 -94.929,33.888c-49.229,12.708 -101.738,10.637 -149.567,25.058c-47.637,14.359 -96.396,25.013 -144.721,38.492c-34.541,9.633 -79.6,12.975 -115.896,18.654c-45.183,7.067 -78.762,4.1 -123.533,8.158c-76.087,6.896 -167.104,8.451 -238.433,36.392c-49.663,19.454 -120.608,77.721 -161.283,113.504c-14.4,12.671 -48.984,42.096 -58.78,55.713c-19.987,27.791 -28.062,74.971 -47.625,106.921c-56.408,92.133 -97.558,128.85 -182.541,192.408c-8.942,6.688 -15.575,17.225 -24.984,23.675c-22.833,15.654 -62.041,27.596 -87.875,40.937c-96.558,49.875 -190.979,108.025 -273.854,178.405c-8.162,6.929 -26.85,27.087 -32.7,36.004c-5.746,8.762 -29.183,51.525 -31.842,59.767c-3.833,11.891 1.65,20.212 12.98,24.512c24.629,9.354 48.212,9.263 72.391,13.492c13.296,2.325 29.213,9.662 44.417,12.837c8.108,1.696 16.317,-0.196 24.342,1.425c30.954,6.254 49.616,52.783 67.975,75.133c12.716,15.476 30.866,29.301 44.512,44.284c3.879,4.262 4.533,16.358 13.771,14.125c5.096,-1.234 13.179,-30.404 21.667,-38.467c16.258,-15.437 50.05,-31.117 70.208,-47.15c42.313,-33.654 99.117,-89.912 101.858,-147.212c0.65,-13.584 -8.7,-42.309 -2.512,-52.534c2.175,-3.595 63.871,-31.641 74.825,-38.229c25.421,-15.296 36.508,-28.083 57.879,-45.167c22.967,-18.354 50.396,-25.1 75.496,-39c31.037,-17.191 79.092,-55.729 106.279,-79.77c9.013,-7.967 41.429,-45.409 47.008,-47.58c7.959,-3.104 25.025,1.413 39.409,-3.399c41.716,-13.955 69.637,-35.513 101.208,-64.809c18.396,-17.062 34.296,-37.058 51.317,-54.592c38.17,-39.316 99.945,-91.204 101.804,-150.316c0.487,-15.513 -10.092,-42.184 -1.333,-55.463c2.729,-4.133 72.512,-49.466 82.283,-55.091c25.654,-14.767 55.662,-26.542 82.054,-38.171c47.783,-21.063 83.8,-29.346 134.5,-40.121c94.6,-20.108 194.329,-36.183 290.112,-14.95c6.667,1.475 13.063,7.892 19.159,9.467c57.487,14.858 219.166,-63 278.683,-87.9c17.617,-7.371 39.917,-12.3 57.034,-20.259c25.77,-11.983 49.787,-33.783 74.708,-45.516c19.575,-9.217 42.187,-13.529 63.079,-22.796c29.654,-13.154 48.271,-30.271 74.358,-45.863c61.279,-36.621 117.321,-44.491 180.913,-68.133c75.062,-27.913 150.225,-57.833 224.729,-87.288c3.925,-1.549 47.425,-11.679 40.021,-18.633Zm-1222.48,-28.6c-12.104,-0.704 -23.967,4.192 -35.792,5.109c-6.004,0.466 -12.417,-2.738 -22.129,-1.559c-19.675,2.388 -41.713,17.684 -62.179,20.888c-16.617,2.6 -32.275,1.45 -49.95,4.441c-14.513,2.455 -39.296,14.092 -49.967,15.334c-35.867,4.17 -79.85,-15.225 -118.675,-6.475c-10.329,2.329 -23.179,12.012 -38.188,12.737c-18.195,0.879 -50.52,-10.933 -67.7,-7.008c-6.92,1.583 -10.037,7.641 -15.595,10.204c-58.2,26.813 -122.763,38.383 -184.709,52.892c-53.837,12.604 -89.725,54.846 -135.32,85.083c-8.713,5.783 -21.571,8.792 -30.98,14.821c-27.396,17.546 -53.691,46.283 -86.212,56.908c-10.896,3.563 -25.813,3.525 -35.175,7.767c-5.775,2.612 -8.446,8.962 -14.384,11.375c-13.087,5.321 -77.679,5.533 -93.487,3.354c-13.85,-1.908 -28.508,-13.008 -41.583,-15.667c-9.317,-1.895 -17.871,-0.333 -26.705,-1.925c-9.545,-1.721 -19.499,-10.783 -27.933,-9.604c-19.671,2.75 -71.729,33.5 -94.467,43.134c-48.02,20.345 -97.933,33.554 -145.033,55.345c-25.183,11.65 -69.442,42.954 -91.421,48.838c-10.437,2.796 -21.316,1.708 -30.5,3.854c-55.262,12.925 -152.183,44.1 -206.17,33.008c-19.667,-4.037 -52.03,-31.191 -66.646,-33.541c-24.842,-3.992 -39.284,3.975 -61.409,11.325c-1.741,1.983 14.867,34.3 5.859,50.195c-7.425,13.105 -21.454,8.605 -33.967,11.817c-35.967,9.233 -90.475,54.734 -113.671,83.829c-6.375,7.992 -8.408,17.288 -15.666,24.405c1.854,3.766 7.799,0.216 10.587,-0.867c21.196,-8.267 48.417,-15.738 67.787,-26.675c14.021,-7.921 27.263,-27.746 45.592,-22.05c6.596,2.05 13.388,20.291 23.654,22.379l0.946,3.813c-6.158,7.979 -11.387,18.379 -16.917,26.212c-2.283,3.238 -25.141,25.117 -12.85,24.408c28.817,-1.671 46.492,-23.879 69.942,-30.3c17.225,-4.716 109.533,-19.562 124.008,-17.645c13.355,1.77 26.788,9.3 40.842,10.666c27.25,2.65 67.246,-8.496 92.259,-19.333c6.795,-2.946 14.945,-12.379 23.558,-16.513c42,-20.154 54.279,6.267 88.271,12.384c6.641,1.196 15.791,-0.5 24.504,0.946c13.221,2.199 25.162,9.079 39.658,7.633c31.25,-3.125 70.342,-34.138 99.638,-43.729c35.129,-11.504 69.191,-16.2 104.995,-32.409c29.767,-13.475 56.613,-38.371 83.988,-50.546c33.683,-14.975 80.879,-18.912 113.583,-35.275c47.121,-23.57 100.813,-46.67 144.975,-75.433c22.038,-14.354 21.175,-27.096 54.85,-25.208c52.921,2.971 69.096,11.333 123.309,-8.479c5.183,-1.896 8.183,-7.025 11.912,-8.184c12.821,-3.97 53.267,13.392 51.425,29.575c-0.55,4.85 -20.429,13.925 -25.762,16.167c-140.425,58.933 -298.059,126.492 -415.588,222.742c-64.3,52.662 -78.025,129 -148.441,172.12c-27.121,16.605 -96.146,51.713 -126.225,47.934c-25.555,-3.213 -49.988,-18.829 -72.559,-21.933c-51.958,-7.155 -130.691,30.241 -170.967,62.283c-12.408,9.871 -23.508,26.612 -36.037,35.517c-10.437,7.42 -24.988,10.924 -35.6,18.787c-11.558,8.558 -20.95,24.662 -33.792,32.042c-17.141,9.841 -73.187,28.791 -91.991,27.866c-9.046,-0.445 -27.879,-10.975 -38.25,-4.921c-1.15,0.671 -2.584,5.763 -4.742,7.975c-35.954,36.834 -71.258,83.109 -107.475,115.909c-5.125,4.642 -14.362,8.896 -18.246,12.604c-2.375,2.271 -2.642,1.933 -1.817,5.917c30.638,11.22 62.909,20.712 88.775,41.504c34.776,27.954 71.542,55.883 110.655,78.258c11.42,6.534 60.983,31.892 70.775,28.884c6.812,-4.492 3.9,-13.675 8.983,-19.775c1.692,-2.03 17.429,-11.176 19.883,-11.301c7.342,-0.375 29.917,12.663 36.809,17.471c11.279,7.871 18.208,24.613 34.387,19.071c10.35,-3.546 5.479,-19.966 8.229,-24.733c0.854,-1.483 6.792,-1.954 9.338,-6.338c4.858,-8.35 3.404,-21.225 11.392,-31.579c7.395,-9.596 23.85,-15.65 33.137,-24.108c29.454,-26.833 59.692,-58.521 91.796,-82.8c18.296,-13.833 41.658,-18.421 61.792,-29.808c38.999,-22.063 75.216,-51.163 116.35,-69.713c20.033,-9.033 48.133,-12.312 64.129,-21.746c11.554,-6.812 19.17,-20.267 29.65,-27.596c8.837,-6.179 19.937,-8.495 28.862,-14.075c59.208,-37.021 136.258,-116.212 175.471,-173.721c17.662,-25.904 20.962,-63.549 33.933,-91.991c26.909,-59.004 157.292,-163.513 214.842,-197.325c69.55,-40.867 130.817,-46.596 209.475,-48.746c19.333,-0.529 38.271,-9.358 57.167,-10.958c33.279,-2.817 68.383,4.775 100.279,2.925c33.346,-1.938 87.829,-12.075 122.421,-17.846c32.887,-5.488 60.279,-21.771 90.883,-29.35c23.967,-5.934 32.904,-5.217 57.275,-14.288c43.121,-16.054 85.987,-20.325 131.842,-22.75l163.025,-53.112l-61.559,-8.521c-25.858,-1.413 -61.079,3.783 -85.166,-3.588c-9.817,-3.004 -19.346,-14.495 -30.179,-18.483c-43.309,-15.946 -69.75,7.746 -111.105,13.154c-9.362,1.225 -39.9,3.892 -48.312,3.354c-10,-0.637 -27.267,-15.175 -30.829,-23.799c-5.117,-12.384 -0.542,-20.446 -12.088,-33.705c-17.054,-19.579 -51.262,-11.762 -40.312,-45.862c5.321,-16.567 41.033,-30.996 55.741,-41.558c30.921,-22.213 60.717,-47.28 88.984,-72.709Zm1611.83,-463.562c-39.292,-0.3 -77.042,14.437 -115.962,17.104c-101.771,6.983 -193.405,9.6 -293.946,32.421c-79.709,18.087 -160.079,45.533 -239.25,67.05c-47.504,12.916 -96.809,22.958 -144.609,38.604c-22.208,7.271 -18.708,5.237 -40.037,8.479c-44.433,6.758 -107.325,28.488 -153.184,38.767c-48.012,10.758 -106.245,-3.771 -153.67,6.65c-62.5,13.737 -124.863,33.075 -188.492,46.25c-15.054,3.116 -28.783,14.254 -43.867,16.245c-30.241,3.988 -66.033,-6.291 -93.545,-1.929c-15.117,2.396 -40.651,15.155 -56.571,20.721c-57.184,19.992 -117.492,38.817 -173.279,61.45c-69.421,28.167 -125.813,61.829 -201.117,79.417c-17.404,4.062 -28.792,3.733 -46.379,0.796c-10.196,-41.688 40.929,-42.359 70.15,-54.3c46.954,-19.192 91.175,-45.275 137.345,-65.892c61.35,-27.396 129.726,-44.042 192.359,-71c36.429,-15.679 73.587,-38.867 109.766,-53.392c11.013,-4.42 23.28,-4.241 33.463,-9.479c12.825,-6.6 23.392,-25.491 35.458,-33.237c43.259,-27.775 99.321,-49.079 143.763,-76.646c4.008,-2.484 14.737,-8.779 16.291,-12.346c3.971,-9.146 -11.333,0.142 -13.587,0.742c-153.075,40.691 -288.088,95.27 -434.938,151.891c-144.22,75.779 -302.995,115.08 -461.299,154.159c-39.2,9.679 -84.425,9.65 -123.746,19.396c-66.955,16.591 -128.771,52.208 -198.954,61.545c-29.567,3.934 -51.88,2.017 -80.213,2.746c-66.783,1.721 -160.292,40.267 -223.763,65.429c-24.112,9.554 -48.333,27.046 -72.52,36.255c-9.921,3.779 -19.759,3.166 -27.85,6.5c-12.613,5.199 -30.738,24.275 -47.288,29.999c-9.758,3.38 -20.621,2.609 -30.708,6.509c-8.188,3.162 -15.25,11.762 -22.846,14.362c-17.338,5.942 -51.896,8.784 -69.417,3.388c-18.725,-5.763 -31.279,-23.092 -48.308,-29.383c-10.908,2.333 -19.179,28.662 -27.221,38.508c-3.416,4.191 -9.387,6.208 -13.833,11.929c-24.834,31.946 -32.409,69.346 -81.017,79.267c-77.954,15.916 -95.416,-69.384 -157.487,-81.667c-67.879,-13.433 -78.646,7.196 -138.021,18.092c-82.413,15.125 -138.654,-5.788 -216.321,-7.496c-12.492,-0.275 -22.7,5.883 -34.313,0.133c-7.529,27.888 6.046,21.004 21.434,27.229c12.225,4.946 36.041,10.921 42.954,14.296c2.179,1.067 20.483,24.475 27.258,29.988c26.284,21.391 56.129,39.675 80.263,62.854c3.575,3.437 9.471,3.133 12.529,7.508c3.475,4.967 6.558,24.934 2.721,30.775l-82.933,83.513c-2.563,7.379 17.141,15.35 23.158,17.133c21.858,6.479 55.729,5.837 78.008,0.754c5.896,-1.346 35.359,-11.6 33.629,-17.879c-5.154,-1.638 -18.566,-20.175 -15.845,-24.408c8.724,-4.734 16.379,-13.934 25.708,-17.259c9.383,-3.341 53.833,-18.637 60.45,-19.696c56.621,-9.041 82.608,37.363 139.992,39.992c34.966,1.6 59.933,-10.408 92.45,-16.567c20.02,-3.787 44.858,-3.033 63.887,-7.687c45.646,-11.158 126.729,-55.583 165.629,-83.404c6.158,-4.404 11.671,-13.45 18.15,-16.196c9.521,-4.029 18.988,-0.908 28.592,-2.9c47.941,-9.946 93.666,-29.1 132.954,-55.975c40.733,-27.867 37.479,-9.625 69.625,3.775c6.275,2.617 55.45,21.167 58.554,21.596c11.392,1.571 45.617,1.258 57.142,-0.388c10.762,-1.533 18.004,-8.862 28.012,-12.066c12.05,-3.859 25.675,-3.029 36.742,-6.196c8.542,-2.446 46.992,-24.546 55.25,-30.621c41.483,-30.517 84.888,-57.404 127.7,-86.983c12.067,-8.334 21.921,-20.538 34.462,-28.509c50.071,-31.816 135.676,-33.541 192.742,-56.304c34.133,-13.612 47.704,-40.587 92.038,-33.567c13.162,2.088 23.387,14.276 40.246,14.35c20.241,0.088 37.241,-15.345 54.337,-17.458c32.8,-4.046 53.817,9.717 85.575,5.404c17.9,-2.433 33.267,-9.45 49.904,-13.066c48.242,-10.492 97.025,-17.692 140.213,-37.859c10.308,-4.816 43.35,-2.854 60.804,-7.316c14.933,-3.821 38.496,-17.459 50.437,-18.509c14.85,-1.3 35.725,15.842 51.379,19.888c2.513,35.546 -23.099,34.396 -44.441,47.366c-11.175,6.788 -17.592,18.946 -27.346,27.055c-13.683,11.366 -34.371,20.025 -45.892,28.525c-22.229,16.404 -50.433,39.258 -71.404,57.4c-21.571,18.662 -5.171,23.333 2.942,39.825c5.125,10.429 6.646,29.066 19.979,31.579c5.804,1.091 37.883,-2.171 45.042,-3.479c12.687,-2.313 23.325,-11.525 38.208,-13.317c19.737,-2.379 48.533,0.292 67.6,6.196c23.646,7.321 40.646,26.637 68.067,10.621c-15.463,-25.671 24.95,-35.896 41.054,-46.217c52.275,-33.487 104.266,-64.458 157.387,-97.363c87.809,-54.395 179.146,-107.666 249.038,-186.041c87.962,-33.55 177.958,-54 268.191,-78.184c117.867,-31.591 234.488,-67.12 352.371,-97.07c105.725,-26.859 202.588,-80.221 308.975,-106.08l63.042,-27.095Zm-1279.7,546.57l1.416,5.68c24.405,3.329 38.505,-10.446 58.559,-15.875c14.504,-3.925 30.425,-2.18 43.775,-4.896c56.825,-11.559 111.891,-32.267 169.95,-39.021c35.654,-4.15 123.983,-11.45 157.112,-8.842c76.688,6.03 119.779,10.196 197.425,-5.937c56.634,-11.771 155.846,-39.229 211.675,-33.804c24.675,2.396 29.3,5.587 57.492,5.233c18.142,-0.229 55.525,-2.767 71.088,0.717c5.116,1.145 14.404,7.887 15.862,12.912c6.763,23.334 -26.183,28.329 -40.525,38.492c-10.183,7.216 -16.183,17.504 -27.542,23.983c-29.987,17.117 -81.808,29.775 -114.812,39.767c-62.083,18.8 -136.567,37.787 -196.85,60.787c-135.879,51.838 -261.321,140.884 -396.563,195.971c-25.391,10.346 -47.733,12.029 -71.458,20.146c-45.417,15.529 -77.283,36.971 -128.175,52.167c-37.517,11.204 -73.479,26.325 -113.088,30.333c-11.012,-0.25 -26.083,-17.175 -37.733,-19.529c-75.487,-15.246 -163.225,-3.75 -238.508,12.125c-17.259,3.641 -33.396,11.925 -50.725,15.112c-14.242,2.621 -32.492,1.434 -46.692,4.842c-13.104,3.142 -29.883,16.379 -43.683,22.154c-27.833,11.646 -49.967,14.988 -77.842,30.934c-12.166,6.958 -62.233,39.875 -68.612,48.745c-7.355,10.221 -1.396,14.163 -1.375,24.134c0.229,96.229 -50.55,129.129 -111.771,188.991c-28.6,27.967 -71.188,77.421 -104.925,98.292c-13.467,8.329 -34.638,11.821 -47.633,18.208c-8.459,4.159 -18.43,16.855 -26.796,21.863c-10.98,6.571 -26.984,10.675 -39.167,18.079c-46.029,27.987 -87.758,77.171 -139.358,101.083c-45.375,21.025 -75.6,34.35 -115.279,67.3l-57.988,34.225c-6.833,28.596 -8.767,57.6 -17.1,85.925c-3.492,11.863 -17.421,49.85 -24.179,58.071c-3.559,4.329 -10.825,3.846 -15.975,7.679c-10.908,8.13 -19.263,23.009 -29.984,32.979c-10.995,10.226 -26.379,18.571 -37.287,28.542c-22.275,20.363 -44.504,42.063 -64.529,64.259c-4.963,15.212 4.666,18.129 4.421,26.995c-1.142,41.805 -70.513,27.147 -98.563,30.985c-17.727,2.425 -12.217,6.653 -26.048,7.64c-18.558,1.325 -27.677,12.959 -39.981,23.255c-5.662,4.741 -22.203,20.307 -25.588,22.974c-7.918,6.241 -22.995,21.338 -31.754,28.451c-16.312,13.258 -38.745,23.033 -55.516,36.083c-19.379,15.079 -37.071,36.304 -57.729,51.037c-14.959,10.667 -31.526,16.746 -45.405,26.155c-10.829,7.341 -27.366,28.037 -35.791,32.9c-7.942,4.583 -25.435,5.101 -31.725,8.358c-15.803,8.182 -10.813,7.021 -28.271,8.621c-21.121,1.937 -34.856,1.933 -54.942,8.966c-11.518,4.033 -11.915,1.753 -35.085,-3.838c-19.015,-4.588 -11.577,5.672 -34.352,-6.991c-14.663,-8.15 -59.871,-21.554 -76.296,-20.971c-96.279,3.421 -146.867,12.321 -239.833,-26.471c-38.471,-16.05 -70.998,-24.736 -112.375,-45.304c-24.803,-12.328 -108.699,-76.515 -122.824,-87.431c-4.52,-3.488 -37.339,-34.581 -43.31,-41.019c-64.446,-69.475 -137.554,-154.354 -192.592,-231.008c-21.42,-29.837 -60.262,-93.842 -76.119,-138.601c-12.427,-35.078 -20.522,-94.478 -19.022,-129.953c4.033,-95.588 11.018,-223.114 17.329,-285.954c3.11,-30.969 24.297,-108.905 26.014,-113.351c22.275,-57.717 48.77,-126.106 83.153,-178.191c18.817,-28.506 16.1,-25.4 39.779,-46.087c11.937,-10.43 23.787,-28.18 37.071,-40.205c28.362,-25.67 62.483,-47.995 91.695,-74.32c12.401,-11.171 44.055,-48.955 56.43,-52.338c28.804,-7.879 68.429,-11.983 93.841,-32.117c20.959,-16.6 14.525,-54.908 44.217,-64.529c18.712,-6.062 17.471,4.454 27.708,9.813c15.85,8.291 59.954,1.912 79.78,3.275c32.516,2.229 68.175,20.275 105.962,20.233c104.862,-0.108 171.967,-63.413 277.2,-2.621c21.45,12.392 28.088,41.146 60.125,57.208c17.754,8.909 33.021,-0.77 48.437,-12.037c17.584,-12.846 33.067,-46.083 46.788,-65.467c6.533,-9.225 15.417,-15.195 22.429,-26.229c8.708,-13.692 11.458,-28.879 19.483,-40.792c13.167,-1.45 25.242,-7.995 37.655,-1.516c22.82,11.908 11.645,37.258 30.895,43.487c36.767,11.9 67.826,-6.025 99.734,-19.537c88.704,-37.563 179.808,-75.684 271.479,-109.242c69.529,-25.45 95.921,-18.162 165.092,-23.85c76.587,-6.304 144.97,-43.321 218.425,-62.112c34.875,-8.925 74.65,-10.584 106.6,-19.363c75.745,-20.808 151.541,-41.821 227.729,-61.4c27.954,-7.183 55.666,-9.329 82.446,-20.608c64.616,-27.221 131.945,-60.875 196.583,-86.809c40.621,-16.304 87.596,-25.454 127.425,-41.47c38.196,-15.355 78.954,-39.03 117.942,-53.809c54.271,-20.566 162.954,-48.375 219.683,-52.27c29.338,-2.013 68.713,9.012 98.879,10.12c-18.083,12.325 -36.254,25.521 -55.325,36.275c-46.5,26.213 -98.112,42.634 -143.171,71.513c-39.129,25.079 -71.316,64.779 -116.304,81.2c-9.671,3.529 -27.716,-1.421 -25.883,15.596c36.891,10.966 67.837,-6.046 102.529,-13.392c43.962,-9.304 91.542,-14.637 135.233,-25.079c19.434,-4.642 37.2,-14.871 58.917,-18.371c43.887,-7.079 90.362,2.679 133.475,-6.808c29.15,-6.413 62.787,-16.946 93.021,-24.35c144.758,-35.45 290.091,-72.346 435.312,-111.463c120.696,-32.508 223.113,-37.75 345.559,-49.504c28.416,-2.729 58.958,-10.45 88.75,-14.296c73.583,-9.496 146.333,-16.091 220.458,-22.887c14.667,-1.342 45.417,-9.534 57.167,-8.496c6.625,0.587 18.833,10.75 18.124,18.108c-14.791,35.584 -48.874,17.621 -77.458,22.571c-82.25,14.258 -169.458,52.571 -248.875,80.317c-15.458,5.404 -37.083,7.796 -52.52,13.308c-88.659,31.625 -172.455,72.012 -264.121,96.567c-81.975,21.958 -165.209,37.375 -247.396,58.912c-18.833,4.938 -31.908,14.363 -46.779,19.063c-66.792,21.096 -137.159,24.904 -203.213,48.7c-21.387,7.704 -31.729,11.483 -53.696,17.871c-36.345,10.57 -68.504,55.662 -100.887,79.433c-67.35,49.446 -141.496,93.517 -214.15,135.066c-11.484,6.567 -21.354,16.884 -36.275,19.575Z" style="fill:#231f20;fill-rule:nonzero;"/><path d="M477.567,1066.55c40.112,56.517 81.433,112.079 123.596,166.904c20.891,27.167 49.512,52.196 58.404,86.104c-7.829,-11.337 -20.138,-17.537 -28.542,-27.241c-9.2,-10.621 -16.813,-26.071 -25.883,-37.084c-79.359,-96.337 -173.746,-197.666 -239.9,-303.908c-4.538,-7.287 -30.675,-48.313 -31.534,-51.712c-3.846,-15.292 16.704,-21.684 29.117,-17.388c4.537,1.571 29.567,58.104 35.121,67.888c23.296,41.049 52.408,78.095 79.621,116.437Z" style="fill:#231f20;fill-rule:nonzero;"/></g></svg>